<svg width="52" height="38" viewBox="0 0 52 38" fill="none" xmlns="http://www.w3.org/2000/svg">
<path d="M0.510058 13.2333H1.95927V3.39623H0.510058V0.629548H7.2511C7.98303 0.629548 8.62712 0.732018 9.18338 0.936957C9.75429 1.1419 10.23 1.42003 10.6106 1.77135C11.0059 2.12268 11.2987 2.5472 11.489 3.04491C11.6939 3.52798 11.7964 4.05496 11.7964 4.62587V4.88936C11.7964 5.76767 11.5475 6.47032 11.0498 6.99731C10.5667 7.52429 9.95191 7.89026 9.20534 8.0952V8.49044C9.95191 8.69538 10.5667 9.06866 11.0498 9.61028C11.5475 10.1373 11.7964 10.8399 11.7964 11.7182V11.9817C11.7964 12.5526 11.6939 13.0869 11.489 13.5846C11.2987 14.0677 11.0059 14.4922 10.6106 14.8582C10.23 15.2095 9.75429 15.4877 9.18338 15.6926C8.62712 15.8975 7.98303 16 7.2511 16H0.510058V13.2333ZM4.8577 13.2333H6.96565C7.58047 13.2333 8.07818 13.1016 8.45878 12.8381C8.83938 12.5746 9.02968 12.1354 9.02968 11.5206V11.3889C9.02968 10.774 8.83938 10.3349 8.45878 10.0714C8.07818 9.8079 7.58047 9.67616 6.96565 9.67616H4.8577V13.2333ZM4.8577 6.90948H6.96565C7.58047 6.90948 8.07818 6.78505 8.45878 6.53619C8.83938 6.2727 9.02968 5.83354 9.02968 5.21873V5.08698C9.02968 4.47216 8.83938 4.04032 8.45878 3.79147C8.07818 3.52798 7.58047 3.39623 6.96565 3.39623H4.8577V6.90948ZM25.329 10.6862C25.329 11.5938 25.1753 12.3989 24.8679 13.1016C24.5605 13.7896 24.1433 14.3751 23.6163 14.8582C23.0894 15.3266 22.4819 15.6853 21.7938 15.9341C21.1205 16.183 20.4105 16.3074 19.6639 16.3074C18.9174 16.3074 18.2001 16.183 17.5121 15.9341C16.8387 15.6853 16.2385 15.3266 15.7115 14.8582C15.1845 14.3751 14.7674 13.7896 14.4599 13.1016C14.1525 12.3989 13.9988 11.5938 13.9988 10.6862V10.4227C13.9988 9.52977 14.1525 8.73929 14.4599 8.05128C14.7674 7.34863 15.1845 6.75577 15.7115 6.2727C16.2385 5.78963 16.8387 5.42367 17.5121 5.17481C18.2001 4.92596 18.9174 4.80153 19.6639 4.80153C20.4105 4.80153 21.1205 4.92596 21.7938 5.17481C22.4819 5.42367 23.0894 5.78963 23.6163 6.2727C24.1433 6.75577 24.5605 7.34863 24.8679 8.05128C25.1753 8.73929 25.329 9.52977 25.329 10.4227V10.6862ZM19.6639 13.6725C20.0592 13.6725 20.4325 13.6066 20.7838 13.4749C21.1351 13.3431 21.4425 13.1528 21.706 12.904C21.9695 12.6551 22.1744 12.355 22.3208 12.0037C22.4819 11.6377 22.5624 11.2278 22.5624 10.774V10.3349C22.5624 9.8811 22.4819 9.47854 22.3208 9.12721C22.1744 8.76125 21.9695 8.45384 21.706 8.20499C21.4425 7.95613 21.1351 7.76583 20.7838 7.63408C20.4325 7.50234 20.0592 7.43646 19.6639 7.43646C19.2687 7.43646 18.8954 7.50234 18.5441 7.63408C18.1928 7.76583 17.8854 7.95613 17.6219 8.20499C17.3584 8.45384 17.1461 8.76125 16.9851 9.12721C16.8387 9.47854 16.7655 9.8811 16.7655 10.3349V10.774C16.7655 11.2278 16.8387 11.6377 16.9851 12.0037C17.1461 12.355 17.3584 12.6551 17.6219 12.904C17.8854 13.1528 18.1928 13.3431 18.5441 13.4749C18.8954 13.6066 19.2687 13.6725 19.6639 13.6725ZM28.0365 13.3651H31.8572V3.26448H28.1683V0.629548H34.6239V13.3651H38.181V16H28.0365V13.3651ZM41.2399 5.10894H44.4677V0.629548H47.2343V5.10894H51.1648V7.74387H47.2343V12.7063C47.2343 13.1455 47.432 13.3651 47.8272 13.3651H50.7695V16H46.1584C45.6607 16 45.2508 15.839 44.9288 15.5169C44.6214 15.1949 44.4677 14.785 44.4677 14.2873V7.74387H41.2399V5.10894Z" fill="#FFF389"/>
<path d="M8.85402 26.3285C8.85402 25.7137 8.61248 25.1794 8.12941 24.7256C7.66098 24.2718 6.99493 24.0449 6.13125 24.0449C5.39933 24.0449 4.8211 24.1986 4.39659 24.506C3.97207 24.7988 3.75981 25.2013 3.75981 25.7137C3.75981 25.9772 3.81105 26.2187 3.91352 26.4383C4.01598 26.6432 4.19165 26.8335 4.4405 27.0092C4.704 27.1702 5.04068 27.3166 5.45056 27.4484C5.87508 27.5801 6.40938 27.7045 7.05348 27.8216C8.66372 28.1144 9.89335 28.6048 10.7424 29.2928C11.5914 29.9808 12.0159 30.9982 12.0159 32.3449V32.6084C12.0159 33.3257 11.8842 33.9771 11.6207 34.5627C11.3718 35.1336 11.0059 35.624 10.5228 36.0339C10.0397 36.4437 9.4542 36.7585 8.76619 36.978C8.07818 37.1976 7.30233 37.3074 6.43866 37.3074C5.4286 37.3074 4.53565 37.1683 3.75981 36.8902C2.99861 36.5974 2.36183 36.2022 1.84948 35.7045C1.33713 35.1921 0.949214 34.5993 0.685721 33.9259C0.422227 33.2379 0.29048 32.4913 0.29048 31.6862V31.0275H3.18891V31.5545C3.18891 32.4767 3.4524 33.2159 3.97939 33.7722C4.52101 34.3138 5.35541 34.5846 6.48258 34.5846C7.36089 34.5846 8.0123 34.3943 8.43682 34.0137C8.86134 33.6331 9.0736 33.1793 9.0736 32.6524C9.0736 32.4035 9.02968 32.1693 8.94185 31.9497C8.85402 31.7155 8.70031 31.5106 8.48073 31.3349C8.26116 31.1446 7.96107 30.9762 7.58047 30.8299C7.19986 30.6835 6.71679 30.559 6.13125 30.4566C5.35541 30.3248 4.64544 30.1565 4.00135 29.9516C3.35725 29.732 2.79367 29.4465 2.3106 29.0952C1.84216 28.7439 1.4762 28.3047 1.21271 27.7777C0.949214 27.2507 0.817467 26.6066 0.817467 25.8454V25.7137C0.817467 25.0842 0.941895 24.506 1.19075 23.979C1.45424 23.4374 1.81289 22.969 2.26668 22.5737C2.73511 22.1785 3.29138 21.8711 3.93547 21.6515C4.59421 21.4319 5.32613 21.3221 6.13125 21.3221C7.03884 21.3221 7.84396 21.4539 8.54661 21.7174C9.24926 21.9662 9.8348 22.3102 10.3032 22.7494C10.7863 23.1886 11.1449 23.6936 11.3792 24.2645C11.628 24.8354 11.7524 25.4356 11.7524 26.065V26.8555H8.85402V26.3285ZM25.329 31.6862C25.329 32.5938 25.1753 33.3989 24.8679 34.1016C24.5605 34.7896 24.1433 35.3751 23.6163 35.8582C23.0894 36.3266 22.4819 36.6853 21.7938 36.9341C21.1205 37.183 20.4105 37.3074 19.6639 37.3074C18.9174 37.3074 18.2001 37.183 17.5121 36.9341C16.8387 36.6853 16.2385 36.3266 15.7115 35.8582C15.1845 35.3751 14.7674 34.7896 14.4599 34.1016C14.1525 33.3989 13.9988 32.5938 13.9988 31.6862V31.4227C13.9988 30.5298 14.1525 29.7393 14.4599 29.0513C14.7674 28.3486 15.1845 27.7558 15.7115 27.2727C16.2385 26.7896 16.8387 26.4237 17.5121 26.1748C18.2001 25.926 18.9174 25.8015 19.6639 25.8015C20.4105 25.8015 21.1205 25.926 21.7938 26.1748C22.4819 26.4237 23.0894 26.7896 23.6163 27.2727C24.1433 27.7558 24.5605 28.3486 24.8679 29.0513C25.1753 29.7393 25.329 30.5298 25.329 31.4227V31.6862ZM19.6639 34.6725C20.0592 34.6725 20.4325 34.6066 20.7838 34.4749C21.1351 34.3431 21.4425 34.1528 21.706 33.904C21.9695 33.6551 22.1744 33.355 22.3208 33.0037C22.4819 32.6377 22.5624 32.2278 22.5624 31.774V31.3349C22.5624 30.8811 22.4819 30.4785 22.3208 30.1272C22.1744 29.7612 21.9695 29.4538 21.706 29.205C21.4425 28.9561 21.1351 28.7658 20.7838 28.6341C20.4325 28.5023 20.0592 28.4365 19.6639 28.4365C19.2687 28.4365 18.8954 28.5023 18.5441 28.6341C18.1928 28.7658 17.8854 28.9561 17.6219 29.205C17.3584 29.4538 17.1461 29.7612 16.9851 30.1272C16.8387 30.4785 16.7655 30.8811 16.7655 31.3349V31.774C16.7655 32.2278 16.8387 32.6377 16.9851 33.0037C17.1461 33.355 17.3584 33.6551 17.6219 33.904C17.8854 34.1528 18.1928 34.3431 18.5441 34.4749C18.8954 34.6066 19.2687 34.6725 19.6639 34.6725ZM27.5754 26.1089H32.1866V27.6899H32.5818C32.7867 27.0897 33.1308 26.6286 33.6138 26.3066C34.1115 25.9699 34.7044 25.8015 35.3924 25.8015C36.4757 25.8015 37.3466 26.1455 38.0054 26.8335C38.6641 27.5069 38.9935 28.5389 38.9935 29.9296V30.4127L36.139 30.6762V30.3687C36.139 29.7686 35.9853 29.2928 35.6779 28.9415C35.3704 28.5755 34.9093 28.3925 34.2945 28.3925C33.6797 28.3925 33.1966 28.6048 32.8453 29.0293C32.494 29.4538 32.3183 30.0613 32.3183 30.8518V34.3651H34.8215V37H27.3119V34.3651H29.5516V28.7439H27.5754V26.1089ZM41.2399 26.1089H44.4677V21.6295H47.2343V26.1089H51.1648V28.7439H47.2343V33.7063C47.2343 34.1455 47.432 34.3651 47.8272 34.3651H50.7695V37H46.1584C45.6607 37 45.2508 36.839 44.9288 36.5169C44.6214 36.1949 44.4677 35.785 44.4677 35.2873V28.7439H41.2399V26.1089Z" fill="url(#paint0_linear_78_7)"/>
<defs>
<linearGradient id="paint0_linear_78_7" x1="44.2659" y1="-5.66004" x2="34.9903" y2="68.9907" gradientUnits="userSpaceOnUse">
<stop stop-color="#FFF500"/>
<stop offset="1" stop-color="#FFA800"/>
</linearGradient>
</defs>
</svg>
