<svg width="104" height="38" viewBox="0 0 104 38" fill="none" xmlns="http://www.w3.org/2000/svg">
<g clip-path="url(#clip0_78_6)">
<path d="M20.2859 29.7143H6.00014C5.05295 29.7143 4.14453 29.338 3.47476 28.6683C2.80498 27.9985 2.42871 27.0901 2.42871 26.1429V6.50001C2.42871 5.55283 2.80498 4.64441 3.47476 3.97464C4.14453 3.30486 5.05295 2.92859 6.00014 2.92859H13.143L18.5001 8.28574H31.0001C31.9473 8.28574 32.8558 8.66201 33.5256 9.33177C34.1952 10.0016 34.5716 10.9099 34.5716 11.8572V18.1071" stroke="#FFF389" stroke-width="3.57143" stroke-linecap="round" stroke-linejoin="round"/>
<g filter="url(#filter0_d_78_6)">
<path d="M31 24.3572L27.4286 29.7143H34.5714L31 35.0715" stroke="url(#paint0_linear_78_6)" stroke-width="3.57143" stroke-linecap="round" stroke-linejoin="round" shape-rendering="crispEdges"/>
</g>
</g>
<path d="M50.5101 13.2333H51.9593V3.39623H50.5101V0.629548H57.2511C57.983 0.629548 58.6271 0.732018 59.1834 0.936957C59.7543 1.1419 60.23 1.42003 60.6106 1.77135C61.0059 2.12268 61.2987 2.5472 61.489 3.04491C61.6939 3.52798 61.7964 4.05496 61.7964 4.62587V4.88936C61.7964 5.76767 61.5475 6.47032 61.0498 6.99731C60.5667 7.52429 59.9519 7.89026 59.2053 8.0952V8.49044C59.9519 8.69538 60.5667 9.06866 61.0498 9.61028C61.5475 10.1373 61.7964 10.8399 61.7964 11.7182V11.9817C61.7964 12.5526 61.6939 13.0869 61.489 13.5846C61.2987 14.0677 61.0059 14.4922 60.6106 14.8582C60.23 15.2095 59.7543 15.4877 59.1834 15.6926C58.6271 15.8975 57.983 16 57.2511 16H50.5101V13.2333ZM54.8577 13.2333H56.9656C57.5805 13.2333 58.0782 13.1016 58.4588 12.8381C58.8394 12.5746 59.0297 12.1354 59.0297 11.5206V11.3889C59.0297 10.774 58.8394 10.3349 58.4588 10.0714C58.0782 9.8079 57.5805 9.67616 56.9656 9.67616H54.8577V13.2333ZM54.8577 6.90948H56.9656C57.5805 6.90948 58.0782 6.78505 58.4588 6.53619C58.8394 6.2727 59.0297 5.83354 59.0297 5.21873V5.08698C59.0297 4.47216 58.8394 4.04032 58.4588 3.79147C58.0782 3.52798 57.5805 3.39623 56.9656 3.39623H54.8577V6.90948ZM75.329 10.6862C75.329 11.5938 75.1753 12.3989 74.8679 13.1016C74.5605 13.7896 74.1433 14.3751 73.6163 14.8582C73.0894 15.3266 72.4819 15.6853 71.7938 15.9341C71.1205 16.183 70.4105 16.3074 69.6639 16.3074C68.9174 16.3074 68.2001 16.183 67.5121 15.9341C66.8387 15.6853 66.2385 15.3266 65.7115 14.8582C65.1845 14.3751 64.7674 13.7896 64.4599 13.1016C64.1525 12.3989 63.9988 11.5938 63.9988 10.6862V10.4227C63.9988 9.52977 64.1525 8.73929 64.4599 8.05128C64.7674 7.34863 65.1845 6.75577 65.7115 6.2727C66.2385 5.78963 66.8387 5.42367 67.5121 5.17481C68.2001 4.92596 68.9174 4.80153 69.6639 4.80153C70.4105 4.80153 71.1205 4.92596 71.7938 5.17481C72.4819 5.42367 73.0894 5.78963 73.6163 6.2727C74.1433 6.75577 74.5605 7.34863 74.8679 8.05128C75.1753 8.73929 75.329 9.52977 75.329 10.4227V10.6862ZM69.6639 13.6725C70.0592 13.6725 70.4325 13.6066 70.7838 13.4749C71.1351 13.3431 71.4425 13.1528 71.706 12.904C71.9695 12.6551 72.1744 12.355 72.3208 12.0037C72.4819 11.6377 72.5624 11.2278 72.5624 10.774V10.3349C72.5624 9.8811 72.4819 9.47854 72.3208 9.12721C72.1744 8.76125 71.9695 8.45384 71.706 8.20499C71.4425 7.95613 71.1351 7.76583 70.7838 7.63408C70.4325 7.50234 70.0592 7.43646 69.6639 7.43646C69.2687 7.43646 68.8954 7.50234 68.5441 7.63408C68.1928 7.76583 67.8854 7.95613 67.6219 8.20499C67.3584 8.45384 67.1461 8.76125 66.9851 9.12721C66.8387 9.47854 66.7655 9.8811 66.7655 10.3349V10.774C66.7655 11.2278 66.8387 11.6377 66.9851 12.0037C67.1461 12.355 67.3584 12.6551 67.6219 12.904C67.8854 13.1528 68.1928 13.3431 68.5441 13.4749C68.8954 13.6066 69.2687 13.6725 69.6639 13.6725ZM78.0365 13.3651H81.8572V3.26448H78.1683V0.629548H84.6239V13.3651H88.181V16H78.0365V13.3651ZM91.2399 5.10894H94.4677V0.629548H97.2343V5.10894H101.165V7.74387H97.2343V12.7063C97.2343 13.1455 97.432 13.3651 97.8272 13.3651H100.77V16H96.1584C95.6607 16 95.2508 15.839 94.9288 15.5169C94.6214 15.1949 94.4677 14.785 94.4677 14.2873V7.74387H91.2399V5.10894Z" fill="#FFF389"/>
<path d="M58.854 26.3285C58.854 25.7137 58.6125 25.1794 58.1294 24.7256C57.661 24.2718 56.9949 24.0449 56.1313 24.0449C55.3993 24.0449 54.8211 24.1986 54.3966 24.506C53.9721 24.7988 53.7598 25.2013 53.7598 25.7137C53.7598 25.9772 53.811 26.2187 53.9135 26.4383C54.016 26.6432 54.1916 26.8335 54.4405 27.0092C54.704 27.1702 55.0407 27.3166 55.4506 27.4484C55.8751 27.5801 56.4094 27.7045 57.0535 27.8216C58.6637 28.1144 59.8934 28.6048 60.7424 29.2928C61.5914 29.9808 62.0159 30.9982 62.0159 32.3449V32.6084C62.0159 33.3257 61.8842 33.9771 61.6207 34.5627C61.3718 35.1336 61.0059 35.624 60.5228 36.0339C60.0397 36.4437 59.4542 36.7585 58.7662 36.978C58.0782 37.1976 57.3023 37.3074 56.4387 37.3074C55.4286 37.3074 54.5357 37.1683 53.7598 36.8902C52.9986 36.5974 52.3618 36.2022 51.8495 35.7045C51.3371 35.1921 50.9492 34.5993 50.6857 33.9259C50.4222 33.2379 50.2905 32.4913 50.2905 31.6862V31.0275H53.1889V31.5545C53.1889 32.4767 53.4524 33.2159 53.9794 33.7722C54.521 34.3138 55.3554 34.5846 56.4826 34.5846C57.3609 34.5846 58.0123 34.3943 58.4368 34.0137C58.8613 33.6331 59.0736 33.1793 59.0736 32.6524C59.0736 32.4035 59.0297 32.1693 58.9418 31.9497C58.854 31.7155 58.7003 31.5106 58.4807 31.3349C58.2612 31.1446 57.9611 30.9762 57.5805 30.8299C57.1999 30.6835 56.7168 30.559 56.1313 30.4566C55.3554 30.3248 54.6454 30.1565 54.0013 29.9516C53.3573 29.732 52.7937 29.4465 52.3106 29.0952C51.8422 28.7439 51.4762 28.3047 51.2127 27.7777C50.9492 27.2507 50.8175 26.6066 50.8175 25.8454V25.7137C50.8175 25.0842 50.9419 24.506 51.1907 23.979C51.4542 23.4374 51.8129 22.969 52.2667 22.5737C52.7351 22.1785 53.2914 21.8711 53.9355 21.6515C54.5942 21.4319 55.3261 21.3221 56.1313 21.3221C57.0388 21.3221 57.844 21.4539 58.5466 21.7174C59.2493 21.9662 59.8348 22.3102 60.3032 22.7494C60.7863 23.1886 61.1449 23.6936 61.3792 24.2645C61.628 24.8354 61.7524 25.4356 61.7524 26.065V26.8555H58.854V26.3285ZM75.329 31.6862C75.329 32.5938 75.1753 33.3989 74.8679 34.1016C74.5605 34.7896 74.1433 35.3751 73.6163 35.8582C73.0894 36.3266 72.4819 36.6853 71.7938 36.9341C71.1205 37.183 70.4105 37.3074 69.6639 37.3074C68.9174 37.3074 68.2001 37.183 67.5121 36.9341C66.8387 36.6853 66.2385 36.3266 65.7115 35.8582C65.1845 35.3751 64.7674 34.7896 64.4599 34.1016C64.1525 33.3989 63.9988 32.5938 63.9988 31.6862V31.4227C63.9988 30.5298 64.1525 29.7393 64.4599 29.0513C64.7674 28.3486 65.1845 27.7558 65.7115 27.2727C66.2385 26.7896 66.8387 26.4237 67.5121 26.1748C68.2001 25.926 68.9174 25.8015 69.6639 25.8015C70.4105 25.8015 71.1205 25.926 71.7938 26.1748C72.4819 26.4237 73.0894 26.7896 73.6163 27.2727C74.1433 27.7558 74.5605 28.3486 74.8679 29.0513C75.1753 29.7393 75.329 30.5298 75.329 31.4227V31.6862ZM69.6639 34.6725C70.0592 34.6725 70.4325 34.6066 70.7838 34.4749C71.1351 34.3431 71.4425 34.1528 71.706 33.904C71.9695 33.6551 72.1744 33.355 72.3208 33.0037C72.4819 32.6377 72.5624 32.2278 72.5624 31.774V31.3349C72.5624 30.8811 72.4819 30.4785 72.3208 30.1272C72.1744 29.7612 71.9695 29.4538 71.706 29.205C71.4425 28.9561 71.1351 28.7658 70.7838 28.6341C70.4325 28.5023 70.0592 28.4365 69.6639 28.4365C69.2687 28.4365 68.8954 28.5023 68.5441 28.6341C68.1928 28.7658 67.8854 28.9561 67.6219 29.205C67.3584 29.4538 67.1461 29.7612 66.9851 30.1272C66.8387 30.4785 66.7655 30.8811 66.7655 31.3349V31.774C66.7655 32.2278 66.8387 32.6377 66.9851 33.0037C67.1461 33.355 67.3584 33.6551 67.6219 33.904C67.8854 34.1528 68.1928 34.3431 68.5441 34.4749C68.8954 34.6066 69.2687 34.6725 69.6639 34.6725ZM77.5754 26.1089H82.1866V27.6899H82.5818C82.7867 27.0897 83.1308 26.6286 83.6138 26.3066C84.1115 25.9699 84.7044 25.8015 85.3924 25.8015C86.4757 25.8015 87.3466 26.1455 88.0054 26.8335C88.6641 27.5069 88.9935 28.5389 88.9935 29.9296V30.4127L86.139 30.6762V30.3687C86.139 29.7686 85.9853 29.2928 85.6779 28.9415C85.3704 28.5755 84.9093 28.3925 84.2945 28.3925C83.6797 28.3925 83.1966 28.6048 82.8453 29.0293C82.494 29.4538 82.3183 30.0613 82.3183 30.8518V34.3651H84.8215V37H77.3119V34.3651H79.5516V28.7439H77.5754V26.1089ZM91.2399 26.1089H94.4677V21.6295H97.2343V26.1089H101.165V28.7439H97.2343V33.7063C97.2343 34.1455 97.432 34.3651 97.8272 34.3651H100.77V37H96.1584C95.6607 37 95.2508 36.839 94.9288 36.5169C94.6214 36.1949 94.4677 35.785 94.4677 35.2873V28.7439H91.2399V26.1089Z" fill="url(#paint1_linear_78_6)"/>
<defs>
<filter id="filter0_d_78_6" x="21.964" y="18.8924" width="18.0721" height="21.6438" filterUnits="userSpaceOnUse" color-interpolation-filters="sRGB">
<feFlood flood-opacity="0" result="BackgroundImageFix"/>
<feColorMatrix in="SourceAlpha" type="matrix" values="0 0 0 0 0 0 0 0 0 0 0 0 0 0 0 0 0 0 127 0" result="hardAlpha"/>
<feOffset/>
<feGaussianBlur stdDeviation="1.83942"/>
<feComposite in2="hardAlpha" operator="out"/>
<feColorMatrix type="matrix" values="0 0 0 0 1 0 0 0 0 0.96 0 0 0 0 0 0 0 0 0.38 0"/>
<feBlend mode="normal" in2="BackgroundImageFix" result="effect1_dropShadow_78_6"/>
<feBlend mode="normal" in="SourceGraphic" in2="effect1_dropShadow_78_6" result="shape"/>
</filter>
<linearGradient id="paint0_linear_78_6" x1="33.35" y1="22.375" x2="27.5" y2="43.3" gradientUnits="userSpaceOnUse">
<stop stop-color="#FFF500"/>
<stop offset="1" stop-color="#FFA800"/>
</linearGradient>
<linearGradient id="paint1_linear_78_6" x1="94.2659" y1="-5.66004" x2="84.9903" y2="68.9907" gradientUnits="userSpaceOnUse">
<stop stop-color="#FFF500"/>
<stop offset="1" stop-color="#FFA800"/>
</linearGradient>
<clipPath id="clip0_78_6">
<rect width="36" height="36" fill="white" transform="translate(0.5 1)"/>
</clipPath>
</defs>
</svg>
